<mxfile host="app.diagrams.net" modified="2022-07-05T02:30:53.599Z" agent="5.0 (Macintosh; Intel Mac OS X 10_15_7) AppleWebKit/537.36 (KHTML, like Gecko) Chrome/102.0.0.0 Safari/537.36" etag="APGZZbgn_2PB8n1uoxXB" version="20.0.4" type="github">
  <diagram id="t3nflw9I2RLgxUgcu3Dc" name="Page-1">
    <mxGraphModel dx="2306" dy="1096" grid="1" gridSize="10" guides="1" tooltips="1" connect="1" arrows="1" fold="1" page="1" pageScale="1" pageWidth="827" pageHeight="1169" math="0" shadow="0">
      <root>
        <mxCell id="0" />
        <mxCell id="1" parent="0" />
        <mxCell id="E5yi-e250Tnd-Hyphz3E-1" value="客户端" style="rounded=0;whiteSpace=wrap;html=1;" parent="1" vertex="1">
          <mxGeometry x="359.5" y="150" width="120" height="60" as="geometry" />
        </mxCell>
        <mxCell id="E5yi-e250Tnd-Hyphz3E-2" value="" style="shape=ext;double=1;rounded=0;whiteSpace=wrap;html=1;" parent="1" vertex="1">
          <mxGeometry x="40" y="280" width="759" height="510" as="geometry" />
        </mxCell>
        <mxCell id="E5yi-e250Tnd-Hyphz3E-6" value="" style="html=1;shadow=0;dashed=0;align=center;verticalAlign=middle;shape=mxgraph.arrows2.arrow;dy=1;dx=13;direction=south;notch=0;" parent="1" vertex="1">
          <mxGeometry x="410" y="220" width="19" height="50" as="geometry" />
        </mxCell>
        <mxCell id="E5yi-e250Tnd-Hyphz3E-9" value="mysql" style="shape=cylinder3;whiteSpace=wrap;html=1;boundedLbl=1;backgroundOutline=1;size=15;" parent="1" vertex="1">
          <mxGeometry x="260" y="497.5" width="40" height="60" as="geometry" />
        </mxCell>
        <mxCell id="E5yi-e250Tnd-Hyphz3E-13" value="&lt;div style=&quot;&quot;&gt;&amp;nbsp; 监听binlog的变化&lt;/div&gt;" style="edgeStyle=orthogonalEdgeStyle;rounded=0;orthogonalLoop=1;jettySize=auto;html=1;align=center;" parent="1" source="E5yi-e250Tnd-Hyphz3E-10" target="E5yi-e250Tnd-Hyphz3E-9" edge="1">
          <mxGeometry relative="1" as="geometry" />
        </mxCell>
        <mxCell id="E5yi-e250Tnd-Hyphz3E-15" value="" style="edgeStyle=orthogonalEdgeStyle;rounded=0;orthogonalLoop=1;jettySize=auto;html=1;" parent="1" source="E5yi-e250Tnd-Hyphz3E-10" target="E5yi-e250Tnd-Hyphz3E-14" edge="1">
          <mxGeometry relative="1" as="geometry" />
        </mxCell>
        <mxCell id="E5yi-e250Tnd-Hyphz3E-16" value="把变化的数据写入Kafka" style="edgeLabel;html=1;align=center;verticalAlign=middle;resizable=0;points=[];" parent="E5yi-e250Tnd-Hyphz3E-15" vertex="1" connectable="0">
          <mxGeometry x="-0.1" y="2" relative="1" as="geometry">
            <mxPoint as="offset" />
          </mxGeometry>
        </mxCell>
        <mxCell id="E5yi-e250Tnd-Hyphz3E-10" value="DTS" style="ellipse;whiteSpace=wrap;html=1;" parent="1" vertex="1">
          <mxGeometry x="80" y="497.5" width="60" height="55" as="geometry" />
        </mxCell>
        <mxCell id="E5yi-e250Tnd-Hyphz3E-14" value="Kafka" style="html=1;whiteSpace=wrap;shape=isoCube2;backgroundOutline=1;isoAngle=15;align=center;" parent="1" vertex="1">
          <mxGeometry x="80" y="610" width="60" height="80" as="geometry" />
        </mxCell>
        <mxCell id="E5yi-e250Tnd-Hyphz3E-20" value="消费Kafka中对应Topic的消息更新ES" style="edgeStyle=orthogonalEdgeStyle;rounded=0;orthogonalLoop=1;jettySize=auto;html=1;" parent="1" source="E5yi-e250Tnd-Hyphz3E-17" target="E5yi-e250Tnd-Hyphz3E-14" edge="1">
          <mxGeometry relative="1" as="geometry" />
        </mxCell>
        <mxCell id="E5yi-e250Tnd-Hyphz3E-22" value="" style="edgeStyle=orthogonalEdgeStyle;rounded=0;orthogonalLoop=1;jettySize=auto;html=1;" parent="1" source="E5yi-e250Tnd-Hyphz3E-17" target="E5yi-e250Tnd-Hyphz3E-21" edge="1">
          <mxGeometry relative="1" as="geometry" />
        </mxCell>
        <mxCell id="E5yi-e250Tnd-Hyphz3E-23" value="消费NSQ中的数据更新ES" style="edgeLabel;html=1;align=left;verticalAlign=middle;resizable=0;points=[];" parent="E5yi-e250Tnd-Hyphz3E-22" vertex="1" connectable="0">
          <mxGeometry x="-0.4919" relative="1" as="geometry">
            <mxPoint as="offset" />
          </mxGeometry>
        </mxCell>
        <mxCell id="E5yi-e250Tnd-Hyphz3E-25" value="" style="edgeStyle=orthogonalEdgeStyle;rounded=0;orthogonalLoop=1;jettySize=auto;html=1;" parent="1" source="E5yi-e250Tnd-Hyphz3E-17" target="E5yi-e250Tnd-Hyphz3E-24" edge="1">
          <mxGeometry relative="1" as="geometry" />
        </mxCell>
        <mxCell id="E5yi-e250Tnd-Hyphz3E-26" value="创建/更新房间数据到ES" style="edgeLabel;html=1;align=center;verticalAlign=middle;resizable=0;points=[];" parent="E5yi-e250Tnd-Hyphz3E-25" vertex="1" connectable="0">
          <mxGeometry x="0.1852" y="-1" relative="1" as="geometry">
            <mxPoint as="offset" />
          </mxGeometry>
        </mxCell>
        <mxCell id="E5yi-e250Tnd-Hyphz3E-17" value="mysql_to_es" style="ellipse;whiteSpace=wrap;html=1;" parent="1" vertex="1">
          <mxGeometry x="364" y="700" width="99.5" height="60" as="geometry" />
        </mxCell>
        <mxCell id="E5yi-e250Tnd-Hyphz3E-21" value="NSQ" style="html=1;whiteSpace=wrap;shape=isoCube2;backgroundOutline=1;isoAngle=15;" parent="1" vertex="1">
          <mxGeometry x="690" y="590" width="60" height="80" as="geometry" />
        </mxCell>
        <mxCell id="E5yi-e250Tnd-Hyphz3E-24" value="ES" style="shape=cylinder3;whiteSpace=wrap;html=1;boundedLbl=1;backgroundOutline=1;size=15;" parent="1" vertex="1">
          <mxGeometry x="383.75" y="485" width="60" height="80" as="geometry" />
        </mxCell>
        <mxCell id="E5yi-e250Tnd-Hyphz3E-28" value="" style="edgeStyle=orthogonalEdgeStyle;rounded=0;orthogonalLoop=1;jettySize=auto;html=1;" parent="1" source="E5yi-e250Tnd-Hyphz3E-27" target="E5yi-e250Tnd-Hyphz3E-21" edge="1">
          <mxGeometry relative="1" as="geometry" />
        </mxCell>
        <mxCell id="E5yi-e250Tnd-Hyphz3E-33" value="向NSQ发送一些辅助字段，更新ES" style="edgeLabel;html=1;align=center;verticalAlign=middle;resizable=0;points=[];" parent="E5yi-e250Tnd-Hyphz3E-28" vertex="1" connectable="0">
          <mxGeometry x="-0.6371" y="-1" relative="1" as="geometry">
            <mxPoint as="offset" />
          </mxGeometry>
        </mxCell>
        <mxCell id="E5yi-e250Tnd-Hyphz3E-29" value="" style="edgeStyle=orthogonalEdgeStyle;rounded=0;orthogonalLoop=1;jettySize=auto;html=1;" parent="1" source="E5yi-e250Tnd-Hyphz3E-27" target="E5yi-e250Tnd-Hyphz3E-9" edge="1">
          <mxGeometry relative="1" as="geometry" />
        </mxCell>
        <mxCell id="E5yi-e250Tnd-Hyphz3E-30" value="更新数据库，DTL根据监听配置的表发生改变" style="edgeLabel;html=1;align=right;verticalAlign=middle;resizable=0;points=[];" parent="E5yi-e250Tnd-Hyphz3E-29" vertex="1" connectable="0">
          <mxGeometry x="-0.2" y="1" relative="1" as="geometry">
            <mxPoint as="offset" />
          </mxGeometry>
        </mxCell>
        <mxCell id="E5yi-e250Tnd-Hyphz3E-31" value="" style="edgeStyle=orthogonalEdgeStyle;rounded=0;orthogonalLoop=1;jettySize=auto;html=1;" parent="1" source="E5yi-e250Tnd-Hyphz3E-27" target="E5yi-e250Tnd-Hyphz3E-24" edge="1">
          <mxGeometry relative="1" as="geometry" />
        </mxCell>
        <mxCell id="E5yi-e250Tnd-Hyphz3E-32" value="从ES根据条件获取推荐feed流" style="edgeLabel;html=1;align=center;verticalAlign=middle;resizable=0;points=[];" parent="E5yi-e250Tnd-Hyphz3E-31" vertex="1" connectable="0">
          <mxGeometry x="-0.0684" y="1" relative="1" as="geometry">
            <mxPoint as="offset" />
          </mxGeometry>
        </mxCell>
        <mxCell id="E5yi-e250Tnd-Hyphz3E-27" value="service" style="ellipse;whiteSpace=wrap;html=1;" parent="1" vertex="1">
          <mxGeometry x="354" y="300" width="120" height="80" as="geometry" />
        </mxCell>
      </root>
    </mxGraphModel>
  </diagram>
</mxfile>
